HIERARCHY
ROOT Hips
{
	OFFSET 0.000000 0.000000 0.000000
	CHANNELS 6 Xposition Yposition Zposition Zrotation Yrotation Xrotation 
	JOINT LeftUpLeg_virtual
	{
		OFFSET 0.000000 0.000000 0.000000
		CHANNELS 3 Zrotation Yrotation Xrotation
		JOINT LeftUpLeg
		{
			OFFSET 8.479694 -4.795517 -0.379053
			CHANNELS 3 Zrotation Yrotation Xrotation
			JOINT LeftLeg
			{
				OFFSET 0.485052 -32.551468 0.112863
				CHANNELS 3 Zrotation Yrotation Xrotation
				JOINT LeftFoot
				{
					OFFSET 0.438033 -32.635670 -3.012641
					CHANNELS 3 Zrotation Yrotation Xrotation
					JOINT LeftToeBase
					{
						OFFSET 0.970169 -13.225353 11.864223
						CHANNELS 3 Zrotation Yrotation Xrotation
						End Site
						{
							OFFSET 0.000000 0.000000 0.000000
						}
					}
				}
			}
		}
	}
	JOINT RightUpLeg_virtual
	{
		OFFSET 0.000000 0.000000 0.000000
		CHANNELS 3 Zrotation Yrotation Xrotation
		JOINT RightUpLeg
		{
			OFFSET -8.479694 -4.795517 -0.379053
			CHANNELS 3 Zrotation Yrotation Xrotation
			JOINT RightLeg
			{
				OFFSET -0.484100 -32.551483 0.112903
				CHANNELS 3 Zrotation Yrotation Xrotation
				JOINT RightFoot
				{
					OFFSET -0.438985 -32.635651 -3.012681
					CHANNELS 3 Zrotation Yrotation Xrotation
					JOINT RightToeBase
					{
						OFFSET -0.970169 -13.225354 11.864223
						CHANNELS 3 Zrotation Yrotation Xrotation
						End Site
						{
							OFFSET 0.000000 0.000000 0.000000
						}
					}
				}
			}
		}
	}
	JOINT Spine_virtual
	{
		OFFSET 0.000000 0.000000 0.000000
		CHANNELS 3 Zrotation Yrotation Xrotation
		JOINT Spine
		{
			OFFSET 0.000000 7.722015 1.166203
			CHANNELS 3 Zrotation Yrotation Xrotation
			JOINT Spine1
			{
				OFFSET 0.000000 12.024086 0.248766
				CHANNELS 3 Zrotation Yrotation Xrotation
				JOINT Spine2
				{
					OFFSET -0.000000 11.503036 -0.491240
					CHANNELS 3 Zrotation Yrotation Xrotation
					JOINT Neck_virtual
					{
						OFFSET 0.000000 0.000000 0.000000
						CHANNELS 3 Zrotation Yrotation Xrotation
						JOINT Neck
						{
							OFFSET 0.000000 18.430687 -3.123054
							CHANNELS 3 Zrotation Yrotation Xrotation
							JOINT Head
							{
								OFFSET -0.000000 9.051071 1.034021
								CHANNELS 3 Zrotation Yrotation Xrotation
								End Site
								{
									OFFSET 0.000000 0.000000 0.000000
								}
							}
						}
					}
					JOINT LeftShoulder_virtual
					{
						OFFSET 0.000000 0.000000 0.000000
						CHANNELS 3 Zrotation Yrotation Xrotation
						JOINT LeftShoulder
						{
							OFFSET 6.197824 13.665230 -4.064723
							CHANNELS 3 Zrotation Yrotation Xrotation
							JOINT LeftArm
							{
								OFFSET 7.778132 -0.187073 -1.709282
								CHANNELS 3 Zrotation Yrotation Xrotation
								JOINT LeftForeArm
								{
									OFFSET 21.954697 0.000000 -2.041093
									CHANNELS 3 Zrotation Yrotation Xrotation
									JOINT LeftHand
									{
										OFFSET 22.992908 0.000000 -0.870901
										CHANNELS 3 Zrotation Yrotation Xrotation
										End Site
										{
											OFFSET 0.000000 0.000000 0.000000
										}
									}
								}
							}
						}
					}
					JOINT RightShoulder_virtual
					{
						OFFSET 0.000000 0.000000 0.000000
						CHANNELS 3 Zrotation Yrotation Xrotation
						JOINT RightShoulder
						{
							OFFSET -6.197824 13.665230 -4.064723
							CHANNELS 3 Zrotation Yrotation Xrotation
							JOINT RightArm
							{
								OFFSET -7.778132 -0.187073 -1.709282
								CHANNELS 3 Zrotation Yrotation Xrotation
								JOINT RightForeArm
								{
									OFFSET -21.954697 0.000000 -2.041093
									CHANNELS 3 Zrotation Yrotation Xrotation
									JOINT RightHand
									{
										OFFSET -22.992908 0.000000 -0.870901
										CHANNELS 3 Zrotation Yrotation Xrotation
										End Site
										{
											OFFSET 0.000000 0.000000 0.000000
										}
									}
								}
							}
						}
					}
				}
			}
		}
	}
}
MOTION
Frames: 9
Frame Time: 0.033333
26.463734 78.403542 -88.594955 -179.947495 -43.634640 179.551986 -2.375520 -1.307549 9.912537 10.932760 3.794890 -42.028333 4.746305 6.823152 42.647892 -10.818498 -7.907640 -7.512767 0.000000 0.000000 0.000000 2.170054 -3.404751 10.046225 2.624447 3.626383 -36.300010 -1.074061 6.270009 33.905090 6.499557 2.926124 -9.115713 0.000000 0.000000 0.000000 2.897234 -0.166004 -1.063878 -2.183831 0.856884 0.825255 1.076663 -2.533167 10.195671 0.007040 -0.038310 -0.056147 1.267062 -1.331977 10.380701 -0.675873 -4.633322 -5.010467 0.000000 0.000000 0.000000 3.025837 -0.796676 7.418532 -1.998348 -6.745993 3.409474 -65.119331 1.276706 -32.785492 -179.672361 -77.432994 -164.844649 0.000000 0.000000 0.000000 -1.829467 1.036434 6.465557 29.948795 7.172685 4.463331 43.170812 12.205697 -38.973896 -169.509572 62.970970 -171.580841 0.000000 0.000000 0.000000 
26.804630 78.473396 -87.674217 -179.811355 -43.767620 179.694614 -2.088896 -1.187068 10.312683 10.666691 3.471754 -41.993157 4.878212 6.678623 42.710860 -9.805636 -7.205861 -7.202505 0.000000 0.000000 0.000000 2.470516 -3.143375 10.100555 2.154038 3.482995 -37.468806 -1.030217 6.603721 33.652202 6.457362 2.912658 -7.748945 0.000000 0.000000 0.000000 2.907183 -0.191432 -0.238812 -2.147455 0.770223 1.202270 1.195132 -2.481770 10.072735 -0.013376 -0.042376 -0.048280 1.407509 -1.238556 10.283900 -1.014834 -4.754721 -5.148337 0.000000 0.000000 0.000000 3.179478 -0.805104 7.454642 -1.518275 -6.749421 3.286906 -65.278741 0.643431 -34.589400 177.857607 -77.961241 -162.161013 0.000000 0.000000 0.000000 -1.739254 1.059794 6.287440 29.684029 7.232078 4.368905 42.463768 12.395668 -41.921352 -169.346208 61.864104 -171.273141 0.000000 0.000000 0.000000 
26.942995 78.565819 -86.836624 -179.768188 -43.410780 179.820098 -1.739001 -1.284870 10.708388 10.347863 2.897155 -41.763181 5.250476 6.352065 43.064732 -8.423509 -6.187006 -6.766801 0.000000 0.000000 0.000000 2.644869 -3.075292 10.211812 1.766038 3.157576 -38.480272 -0.862814 6.908708 33.549937 6.697002 2.995959 -6.320577 0.000000 0.000000 0.000000 2.896536 -0.152531 0.403806 -2.115668 0.798547 1.470026 1.227924 -2.533355 9.938654 -0.003847 -0.046267 -0.008874 1.323727 -1.445616 10.097040 -1.276411 -4.758892 -5.020014 0.000000 0.000000 0.000000 3.125761 -0.873159 7.089403 -1.188905 -6.777102 3.098456 -64.717012 0.106848 -35.859374 174.298354 -78.373675 -158.758048 0.000000 0.000000 0.000000 -1.732873 1.114502 6.014851 29.437644 7.692151 4.419555 42.140474 12.369287 -43.877084 -169.023877 60.906299 -170.779099 0.000000 0.000000 0.000000 
26.851955 78.661499 -86.174461 -179.919409 -42.802559 179.870983 -1.510046 -1.590901 10.927227 9.973435 2.285823 -41.433048 5.675609 6.194298 44.408824 -6.823946 -4.969349 -4.984452 0.000000 0.000000 0.000000 2.621335 -3.017364 10.274730 1.382451 2.578633 -39.115004 -0.586520 7.161102 33.683556 7.184701 3.218936 -5.261338 0.000000 0.000000 0.000000 2.809623 -0.080669 0.848212 -2.061860 0.721688 1.655177 1.198248 -2.421650 9.844798 -0.032728 -0.050594 0.001967 1.359736 -1.434149 9.892830 -1.305530 -4.771779 -4.631587 0.000000 0.000000 0.000000 3.116420 -0.828784 6.846710 -1.051819 -6.756748 2.915358 -64.069428 -0.346988 -36.309989 172.521740 -78.906013 -157.492046 0.000000 0.000000 0.000000 -1.702764 1.162644 5.787244 29.091961 8.326611 4.472950 42.286357 11.898365 -44.444413 -168.854871 60.539368 -170.431825 0.000000 0.000000 0.000000 
26.505539 78.745758 -85.693092 179.873756 -42.185277 -179.812229 -1.630025 -1.555223 10.848097 9.530180 1.902877 -40.946752 5.693906 6.160911 44.246543 -6.719699 -5.310805 -5.153580 0.000000 0.000000 0.000000 2.576208 -2.716934 10.231885 1.021823 1.737344 -39.656905 -0.190469 7.315326 33.943404 7.870256 3.517203 -4.386619 0.000000 0.000000 0.000000 2.622040 0.147775 0.731769 -1.979498 0.674399 1.495262 1.101696 -2.461232 9.641794 -0.018306 -0.040010 0.010315 1.306450 -1.316233 9.781990 -1.178885 -4.760648 -3.962207 0.000000 0.000000 0.000000 3.048815 -0.890864 6.707492 -1.181480 -6.721599 2.616389 -63.423252 -0.881023 -35.646730 170.399436 -79.911116 -156.091624 0.000000 0.000000 0.000000 -1.820106 1.078906 5.615478 28.735873 9.113514 4.542297 43.079980 11.318065 -43.704393 -168.124697 61.038750 -169.553750 0.000000 0.000000 0.000000 
25.901558 78.850990 -85.386261 179.880408 -41.464214 -179.818650 -1.801739 -1.321824 10.709694 8.955582 1.611646 -40.110870 5.573338 6.030608 43.265680 -7.098617 -6.034601 -5.018117 0.000000 0.000000 0.000000 2.583985 -2.221518 10.156087 0.641997 0.707789 -39.797938 0.294232 7.461772 34.367029 8.590495 3.880143 -4.036944 0.000000 0.000000 0.000000 2.490382 0.445761 0.297047 -1.811345 0.609208 1.195960 0.997420 -2.527059 9.499562 -0.000642 -0.014174 0.008607 1.174061 -1.422818 9.665181 -0.933407 -4.684099 -3.023564 0.000000 0.000000 0.000000 2.890355 -1.008600 6.575234 -1.606337 -6.751356 2.274993 -62.584723 -1.730997 -34.450217 166.366428 -82.005491 -152.885575 0.000000 0.000000 0.000000 -1.984399 0.869678 5.455691 28.455654 9.943692 4.585388 44.001158 10.876193 -42.522989 -166.688868 62.756243 -168.000155 0.000000 0.000000 0.000000 
25.041443 78.943336 -85.176674 179.927769 -40.801955 -179.867458 -2.003813 -1.455474 10.591576 8.365101 1.507594 -38.902128 5.540810 5.745284 41.957739 -7.568025 -6.724710 -5.048855 0.000000 0.000000 0.000000 2.573869 -1.727517 10.034531 0.068831 0.024400 -39.588166 0.591332 7.432410 34.831082 9.233122 4.208606 -4.084959 0.000000 0.000000 0.000000 2.414872 0.606410 -0.472882 -1.611926 0.432645 0.755914 0.850379 -2.712832 9.391762 -0.011465 0.081873 0.043126 1.012418 -1.561090 9.606391 -0.603041 -4.529514 -1.820147 0.000000 0.000000 0.000000 2.676899 -1.099879 6.452407 -2.187102 -6.748680 1.871439 -61.524090 -2.979654 -33.286500 153.433889 -85.224840 -140.796044 0.000000 0.000000 0.000000 -2.209804 0.802515 5.315696 28.183208 10.800565 4.594293 44.505533 10.628637 -41.624040 -164.137492 65.789618 -165.443560 0.000000 0.000000 0.000000 
24.009111 78.997757 -84.948074 -179.936730 -39.843936 -179.889288 -2.358419 -1.154136 10.421816 8.010255 1.319765 -37.594727 5.568400 5.048785 40.713108 -8.218548 -7.585475 -5.518956 0.000000 0.000000 0.000000 2.781630 -1.480336 9.705344 -0.782857 -0.217222 -39.328352 1.019051 7.777024 35.414715 9.913903 4.398262 -4.310213 0.000000 0.000000 0.000000 2.475494 0.812738 -1.424007 -1.412531 0.420734 0.192211 0.701858 -2.749084 9.306856 0.012789 -0.016989 0.026982 0.746605 -1.912525 9.689990 -0.248325 -4.248856 -0.543524 0.000000 0.000000 0.000000 2.385446 -1.243758 6.438711 -2.765881 -6.785258 1.585645 -60.014086 -4.939375 -32.728197 82.012342 -87.562731 -70.117506 0.000000 0.000000 0.000000 -2.435595 0.641178 5.362820 27.718813 11.588312 4.425122 44.554687 10.490126 -41.425336 -160.014571 69.650670 -161.409924 0.000000 0.000000 0.000000 
22.866989 78.989235 -84.573853 -179.930583 -38.704852 -179.805864 -2.135951 -0.910942 10.319961 6.880490 0.859528 -36.345694 5.980751 4.660532 39.835265 -8.583162 -8.047168 -6.243292 0.000000 0.000000 0.000000 3.051690 -1.158276 9.400780 -2.015969 -0.469126 -39.035491 1.329570 8.018733 35.888437 10.824130 4.870106 -4.569131 0.000000 0.000000 0.000000 2.671728 1.073298 -2.369399 -1.287815 0.510198 -0.306654 0.518014 -2.890978 9.275417 0.033789 -0.090240 0.051644 0.566916 -1.911183 9.662920 0.263148 -4.073512 0.569823 0.000000 0.000000 0.000000 2.149154 -1.422590 6.290377 -3.201607 -6.606743 1.099102 -58.312576 -7.030030 -32.602330 27.265021 -84.301644 -16.015045 0.000000 0.000000 0.000000 -2.635009 0.478673 5.325711 26.989890 12.141232 4.092211 43.879939 10.180794 -41.715066 -154.217011 73.555864 -155.806068 0.000000 0.000000 0.000000 
